PathFileType	4	(X/Y/Z)	C:\Users\WrightLab\Desktop\Jo\P4V124.trc
DataRate	CameraRate	NumFrames	NumMarkers	Units	OrigDataRate	OrigDataStartFrame	OrigNumFrames
100.00	100.00	       19	19	mm	100.00	492	       562
Frame#	Time	Headset_Front			Headset_Back			Headset_Left			Headset_Right			Left_Shoulder			Right_Shoulder			Sternum			C7			Left Elbow			Right Elbow			Left Wrist			Right Wrist			Left ASIS			Right ASIS			S2			Left Knee			Right Knee			Left Ankle			Right Ankle			
		X1	Y1	Z1	X2	Y2	Z2	X3	Y3	Z3	X4	Y4	Z4	X5	Y5	Z5	X6	Y6	Z6	X7	Y7	Z7	X8	Y8	Z8	X9	Y9	Z9	X10	Y10	Z10	X11	Y11	Z11	X12	Y12	Z12	X13	Y13	Z13	X14	Y14	Z14	X15	Y15	Z15	X16	Y16	Z16	X17	Y17	Z17	X18	Y18	Z18	X19	Y19	Z19	

492	4.910	-55.96512	1788.44812	2168.22485	-224.75909	1742.82568	2285.49023							21.31804	1590.39783	2138.33618	-276.55286	1567.65430	2072.30542	-134.58250	1516.18848	2213.46362				196.71715	1255.75146	2146.54785	-421.49301	1222.08008	2109.87793	184.90057	969.44128	2267.04688	-414.64331	1004.64069	2317.81323	39.32795	1088.70630	2243.21143	-285.29437	1080.29675	2162.33691				38.61644	623.23273	2355.55737	-262.80762	593.88141	2181.67847	93.35768	205.72890	2061.39331	-170.07233	102.23650	2168.19189	
493	4.920	-58.08320	1788.37805	2172.18921	-227.34151	1743.71851	2290.20776							18.69871	1591.15564	2143.36401	-278.81543	1567.73962	2077.38281	-136.70030	1515.53772	2217.49463				195.81900	1257.41187	2148.14941	-425.86111	1223.26355	2117.19580	185.37372	970.53314	2266.06689	-416.90222	1010.87506	2329.47852	37.08591	1089.65857	2246.80396	-286.10205	1080.49890	2162.80493				34.07412	623.56531	2358.03955	-262.92386	593.98431	2182.25464	91.39097	194.77235	2082.30664	-169.95848	102.35757	2168.20581	
494	4.930				-229.97934	1744.44250	2294.90967							16.47053	1592.21594	2148.15356	-281.51773	1568.00354	2082.41235	-138.06816	1515.65356	2221.13086				194.80765	1258.30688	2147.59888	-427.75409	1224.32434	2121.86011	185.64790	971.17010	2265.73877	-419.14618	1017.27142	2341.20166	35.08475	1090.41455	2250.52368	-287.67197	1080.71045	2164.46045				28.91060	624.96216	2361.84790	-263.18613	593.84094	2183.05493	86.71602	184.06169	2101.90674	-169.88432	102.41273	2168.22778	
495	4.940	-63.19027	1788.91772	2180.82495	-232.32082	1745.10901	2299.21899							14.22218	1592.69019	2152.66162	-283.96347	1568.26941	2086.97949	-140.54753	1515.72559	2226.09644				192.60545	1259.36365	2146.51001	-431.92722	1225.00208	2128.93140	185.06430	972.51160	2266.18213				33.21315	1091.53137	2253.72974	-289.00247	1079.98218	2166.08398				25.30520	626.18579	2365.73413	-262.88516	593.46564	2183.88940	83.21847	175.12601	2122.80933	-169.90182	102.41531	2168.29858	
496	4.950	-65.26852	1789.00122	2184.79297	-234.32678	1745.30676	2303.03638							12.01182	1593.38147	2156.79272	-286.26141	1568.35596	2091.64307	-142.54875	1515.40808	2230.46777				191.25316	1260.12048	2147.11963	-435.79736	1226.62292	2136.32349	184.31799	973.84094	2266.36157				31.74105	1091.67456	2256.78394	-290.09195	1079.36743	2167.07007				20.16622	624.20129	2366.06543	-263.10684	593.64838	2184.76123	79.39070	165.85936	2141.96240	-169.78850	102.49778	2168.22070	
497	4.960	-67.06548	1789.12036	2189.25488	-236.63977	1745.85608	2307.12256							9.71955	1593.52881	2160.98901	-288.20886	1568.46558	2095.10986	-144.21408	1515.43103	2234.44702				189.71623	1261.31567	2149.02173	-438.30112	1228.10645	2141.75366	183.53137	974.56451	2266.18188				30.37526	1091.97522	2259.75903	-291.43179	1079.51404	2168.56738				16.66762	625.48157	2369.09131	-263.08646	593.33795	2186.36133	76.69455	156.91045	2162.62842	-169.80972	102.46758	2168.24854	
498	4.970	-68.75686	1789.08362	2193.45581	-238.72145	1746.45056	2310.79468							7.59854	1593.98914	2164.70117	-290.57797	1568.72021	2100.19141	-145.97269	1515.03333	2238.34424				187.90945	1262.33960	2150.67676	-441.72278	1229.09875	2149.40381	182.95270	974.32654	2265.40479				28.51068	1092.23779	2263.75024	-292.65173	1080.09937	2170.30127				12.04017	624.22308	2369.59277	-262.15106	594.40546	2181.65723	73.37878	149.98634	2182.80957	-169.84546	102.43674	2168.28052	
499	4.980	-70.80444	1789.22876	2197.84888	-240.58629	1746.55005	2314.51050							6.01912	1594.27368	2168.51001	-292.29031	1569.34094	2104.18530	-147.90590	1514.32751	2241.98999				186.18817	1262.98035	2151.28442	-443.99277	1229.94824	2154.31470	181.30818	974.33521	2265.51416				26.66984	1093.16211	2267.28979	-293.51102	1080.03760	2171.69165				9.08164	624.50519	2371.97363	-262.57114	594.39722	2182.40161	70.14343	142.85728	2200.61890	-169.85822	102.39211	2168.26025	
500	4.990	-72.60868	1789.15869	2201.72583										4.77200	1594.98169	2172.81543	-293.95676	1568.84766	2107.95190	-149.28265	1514.38477	2244.30005				184.67685	1263.45715	2152.95410	-446.95267	1231.55505	2160.92261	180.09274	973.86786	2265.39746				25.21473	1093.60120	2270.50269	-294.76700	1080.06982	2173.63184				5.38148	624.67950	2374.21606	-263.09433	594.31592	2182.81836	66.47101	137.30812	2218.98926	-169.85904	102.39024	2168.21558	
501	5.000	-74.26248	1789.32642	2204.82959										3.18298	1595.77771	2176.82642	-294.74927	1568.59802	2110.42871	-151.52278	1514.34607	2248.40820				182.47087	1264.25354	2155.77710	-448.66724	1232.36096	2166.66187	178.30568	973.81311	2266.95264				23.39049	1093.89758	2273.84595	-295.75146	1079.86902	2175.04492				1.63127	623.87268	2374.91992	-263.67697	594.44269	2183.44092	62.79718	133.30554	2235.35278	-169.93275	102.34769	2168.24854	
502	5.010	-76.13617	1789.00769	2208.48608										1.29173	1596.29553	2181.00391	-296.30692	1568.53870	2113.88086	-153.04419	1514.19556	2250.91821				181.03165	1264.80017	2159.51440	-450.38623	1233.32153	2172.27759	176.63467	973.24432	2267.75977				22.56894	1093.50806	2276.01904	-296.33481	1079.78772	2176.11182				-0.29052	623.32959	2376.82422	-264.20117	594.53595	2183.99048	60.01847	129.30055	2249.76172	-169.92216	102.30134	2168.17139	
503	5.020	-77.61748	1788.96594	2211.71753										-0.55213	1596.34900	2184.55566	-297.07730	1568.68494	2115.85547	-154.42014	1513.81665	2254.16553				179.53616	1265.29370	2162.42871	-452.15585	1234.59558	2177.97534	174.26608	973.41016	2268.89404				21.04437	1093.94446	2279.38818	-297.77823	1080.31226	2178.66309				-2.96157	623.79156	2379.67285	-264.67227	594.71130	2184.69922	57.19212	127.27337	2264.94385	-170.00172	102.27848	2168.19409	
504	5.030	-79.02476	1789.01965	2215.61548										-1.45072	1596.40552	2187.62720	-298.38089	1568.72266	2118.85181	-155.59138	1513.95691	2256.41284				177.26846	1265.34021	2165.97925	-453.33252	1235.25403	2183.01489	172.48189	971.93365	2269.01123				20.03282	1094.46350	2282.06787	-298.25198	1079.85840	2179.61035				-5.15308	624.02209	2381.22046	-264.91199	594.84509	2185.29858	54.62972	124.41608	2276.75000	-169.98441	102.24423	2168.16235	
505	5.040	-80.29603	1789.21033	2219.18750										-2.75942	1597.07361	2192.30835	-298.87274	1568.21790	2120.58081	-157.20007	1513.83032	2259.07056				176.18300	1265.28406	2169.33276	-454.07523	1236.13635	2188.47217	170.29982	971.28052	2270.27832				18.88728	1094.60486	2285.27466	-299.25980	1080.23926	2181.81787				-8.93773	624.16071	2383.13818	-265.17010	594.96368	2186.18750	52.21767	123.25151	2288.54419	-169.94090	102.21364	2168.17358	
506	5.050	-81.65237	1789.33472	2222.74414										-3.38530	1597.64331	2195.15796	-299.80261	1568.53308	2122.61670	-158.39337	1513.96509	2261.22729				174.55753	1265.07129	2173.94629	-454.79166	1236.93103	2193.06958	167.65683	970.80066	2273.04126				17.81963	1095.34973	2288.26050	-299.94809	1080.63208	2183.36914				-10.94996	624.44098	2384.70459	-265.49313	594.98279	2187.17505	49.82663	121.22672	2298.12378	-170.01334	102.23603	2168.34180	
507	5.060	-82.62031	1789.28320	2225.26294										-4.50035	1597.62219	2198.08057	-300.51349	1568.37000	2124.08862	-160.02530	1514.37927	2263.96680				172.97522	1264.98328	2179.24585	-455.04642	1238.00439	2197.18774	165.51703	970.08429	2274.83936				16.59819	1095.56274	2291.20776	-300.68686	1080.64417	2184.94019				-11.75609	624.11639	2385.58301	-265.74109	594.86737	2188.30762	48.41148	120.93421	2308.19702	-169.93340	102.21404	2168.27661	
508	5.070	-83.99472	1789.38171	2228.15356										-4.96500	1597.61169	2200.39453	-300.50629	1567.64050	2124.52954	-160.78958	1513.81665	2265.81812				171.60335	1264.91711	2183.98779	-454.85443	1238.53699	2200.88745	162.97850	968.83356	2276.73584				15.41772	1095.68335	2293.78638	-301.71460	1080.92883	2187.11890				-13.68639	624.46313	2389.25977	-265.88593	594.64703	2189.59888	46.05688	119.72914	2313.82935	-169.89485	102.20896	2168.25122	
509	5.080	-84.93175	1789.22070	2231.01660										-6.17729	1598.15552	2205.09961	-300.74707	1567.30029	2125.18652	-162.16252	1514.54993	2268.15576				170.41550	1264.58972	2189.20654	-454.76752	1239.53406	2205.13965	160.62099	967.65198	2278.94629				14.32992	1095.86853	2296.19531	-302.23215	1080.61719	2188.59033				-14.24076	624.78528	2391.44434	-266.18823	594.61023	2190.95068	44.34803	119.23483	2320.31812	-169.86230	102.23100	2168.23413	
510	5.090	-85.75832	1789.30969	2234.66187										-6.55789	1597.68628	2208.04443	-300.90570	1567.24658	2126.16211	-162.99564	1514.90479	2269.89160				169.24660	1264.74512	2194.61133	-454.51913	1239.77783	2209.23267	157.88667	966.53729	2281.73877				13.00664	1096.15759	2299.21997	-302.72073	1081.41418	2191.31738				-16.27619	625.35620	2394.40674	-266.51563	594.61670	2192.17920	43.13170	118.29942	2326.02295	-169.92693	102.25910	2168.32056	
